M48
; DRILL file {KiCad 5.1.4-e60b266~84~ubuntu16.04.1} date Mon 20 Jan 2020 06:11:19 PM UTC
; FORMAT={-:-/ absolute / metric / decimal}
; #@! TF.CreationDate,2020-01-20T18:11:19+00:00
; #@! TF.GenerationSoftware,Kicad,Pcbnew,5.1.4-e60b266~84~ubuntu16.04.1
; #@! TF.FileFunction,Plated,1,2,PTH
FMAT,2
METRIC
T1C1.000
%
G90
G05
T1
X3.3Y13.21
X3.3Y10.67
X3.3Y8.13
X3.3Y5.59
X3.3Y3.05
X5.84Y13.21
X5.84Y10.67
X5.84Y8.13
X5.84Y5.59
X5.84Y3.05
X10.34Y13.185
X10.34Y10.645
X10.34Y8.105
X10.34Y5.565
X10.34Y3.025
X12.88Y13.185
X12.88Y10.645
X12.88Y8.105
X12.88Y5.565
X12.88Y3.025
T0
M30
