G04 #@! TF.GenerationSoftware,KiCad,Pcbnew,5.1.4-e60b266~84~ubuntu16.04.1*
G04 #@! TF.CreationDate,2020-01-20T18:13:17+00:00*
G04 #@! TF.ProjectId,nas-mod-connector,6e61732d-6d6f-4642-9d63-6f6e6e656374,rev?*
G04 #@! TF.SameCoordinates,PX4db9760PY83d8710*
G04 #@! TF.FileFunction,Copper,L1,Top*
G04 #@! TF.FilePolarity,Positive*
%FSLAX46Y46*%
G04 Gerber Fmt 4.6, Leading zero omitted, Abs format (unit mm)*
G04 Created by KiCad (PCBNEW 5.1.4-e60b266~84~ubuntu16.04.1) date 2020-01-20 18:13:17*
%MOMM*%
%LPD*%
G04 APERTURE LIST*
%ADD10R,1.700000X1.700000*%
%ADD11O,1.700000X1.700000*%
%ADD12C,0.400000*%
G04 APERTURE END LIST*
D10*
X10340000Y3025000D03*
D11*
X12880000Y3025000D03*
X10340000Y5565000D03*
X12880000Y5565000D03*
X10340000Y8105000D03*
X12880000Y8105000D03*
X10340000Y10645000D03*
X12880000Y10645000D03*
X10340000Y13185000D03*
X12880000Y13185000D03*
D10*
X5840000Y3050000D03*
D11*
X3300000Y3050000D03*
X5840000Y5590000D03*
X3300000Y5590000D03*
X5840000Y8130000D03*
X3300000Y8130000D03*
X5840000Y10670000D03*
X3300000Y10670000D03*
X5840000Y13210000D03*
X3300000Y13210000D03*
D12*
X4149999Y14059999D02*
X3300000Y13210000D01*
X4750001Y14660001D02*
X4149999Y14059999D01*
X11404999Y14660001D02*
X4750001Y14660001D01*
X12880000Y13185000D02*
X11404999Y14660001D01*
X10315000Y13210000D02*
X10340000Y13185000D01*
X5840000Y13210000D02*
X10315000Y13210000D01*
X3404009Y15460011D02*
X1849999Y13906001D01*
X2450001Y11519999D02*
X3300000Y10670000D01*
X12750991Y15460011D02*
X3404009Y15460011D01*
X14330001Y13881001D02*
X12750991Y15460011D01*
X14330001Y12095001D02*
X14330001Y13881001D01*
X1849999Y12120001D02*
X2450001Y11519999D01*
X12880000Y10645000D02*
X14330001Y12095001D01*
X1849999Y13906001D02*
X1849999Y12120001D01*
X10315000Y10670000D02*
X10340000Y10645000D01*
X5840000Y10670000D02*
X10315000Y10670000D01*
X2450001Y8979999D02*
X3300000Y8130000D01*
X1049989Y14237375D02*
X1049989Y10380011D01*
X3072635Y16260021D02*
X1049989Y14237375D01*
X13082365Y16260021D02*
X3072635Y16260021D01*
X15130011Y14212375D02*
X13082365Y16260021D01*
X1049989Y10380011D02*
X2450001Y8979999D01*
X15130011Y10355011D02*
X15130011Y14212375D01*
X12880000Y8105000D02*
X15130011Y10355011D01*
X10315000Y8130000D02*
X10340000Y8105000D01*
X5840000Y8130000D02*
X10315000Y8130000D01*
X12935000Y5565000D02*
X12880000Y5565000D01*
X14330001Y2141536D02*
X14330001Y4169999D01*
X12963454Y774989D02*
X14330001Y2141536D01*
X3300000Y5590000D02*
X1849999Y4139999D01*
X1849999Y2166536D02*
X3241546Y774989D01*
X3241546Y774989D02*
X12963454Y774989D01*
X14330001Y4169999D02*
X12935000Y5565000D01*
X1849999Y4139999D02*
X1849999Y2166536D01*
X10315000Y5590000D02*
X10340000Y5565000D01*
X5840000Y5590000D02*
X10315000Y5590000D01*
X12880000Y1822919D02*
X12880000Y3025000D01*
X12632080Y1574999D02*
X12880000Y1822919D01*
X3572920Y1574999D02*
X12632080Y1574999D01*
X3300000Y1847919D02*
X3572920Y1574999D01*
X3300000Y3050000D02*
X3300000Y1847919D01*
X10315000Y3050000D02*
X10340000Y3025000D01*
X5840000Y3050000D02*
X10315000Y3050000D01*
M02*
