M48
; DRILL file {KiCad 5.1.4-e60b266~84~ubuntu16.04.1} date Mon 20 Jan 2020 04:25:02 PM UTC
; FORMAT={-:-/ absolute / metric / decimal}
; #@! TF.CreationDate,2020-01-20T16:25:02+00:00
; #@! TF.GenerationSoftware,Kicad,Pcbnew,5.1.4-e60b266~84~ubuntu16.04.1
; #@! TF.FileFunction,Plated,1,2,PTH
FMAT,2
METRIC
T1C0.400
T2C0.800
%
G90
G05
T1
X6.65Y16.7
X6.65Y3.05
T2
X2.0Y33.0
X2.0Y31.0
X2.0Y29.0
X2.0Y27.0
X2.0Y25.0
X2.0Y23.0
X2.0Y21.0
X2.0Y19.0
X2.0Y17.0
X2.0Y15.0
X2.0Y13.0
X2.0Y11.0
X2.0Y9.0
X2.0Y7.0
X2.0Y5.0
X4.0Y33.0
X4.0Y31.0
X4.0Y29.0
X4.0Y27.0
X4.0Y25.0
X4.0Y23.0
X4.0Y21.0
X4.0Y19.0
X4.0Y17.0
X4.0Y15.0
X4.0Y13.0
X4.0Y11.0
X4.0Y9.0
X4.0Y7.0
X4.0Y5.0
T0
M30
