M48
; DRILL file {KiCad 5.1.4-e60b266~84~ubuntu16.04.1} date Sun 29 Dec 2019 04:04:02 PM UTC
; FORMAT={-:-/ absolute / metric / decimal}
; #@! TF.CreationDate,2019-12-29T16:04:02+00:00
; #@! TF.GenerationSoftware,Kicad,Pcbnew,5.1.4-e60b266~84~ubuntu16.04.1
; #@! TF.FileFunction,Plated,1,2,PTH
FMAT,2
METRIC
T1C1.000
%
G90
G05
T1
X19.21Y51.6
X19.21Y49.06
X19.21Y46.52
X19.21Y43.98
X19.21Y41.44
X19.21Y38.9
X19.21Y36.36
X19.21Y33.82
X19.21Y31.28
X19.21Y28.74
X19.21Y26.2
X19.21Y23.66
X19.21Y21.12
X19.21Y18.58
X19.21Y16.04
X19.21Y13.5
X19.21Y10.96
X19.21Y8.42
X19.21Y5.88
X19.21Y3.34
X21.75Y51.6
X21.75Y49.06
X21.75Y46.52
X21.75Y43.98
X21.75Y41.44
X21.75Y38.9
X21.75Y36.36
X21.75Y33.82
X21.75Y31.28
X21.75Y28.74
X21.75Y26.2
X21.75Y23.66
X21.75Y21.12
X21.75Y18.58
X21.75Y16.04
X21.75Y13.5
X21.75Y10.96
X21.75Y8.42
X21.75Y5.88
X21.75Y3.34
T0
M30
